HIERARCHY
ROOT joint_Root
{
	OFFSET 0.0 0.0 0.0
	CHANNELS 6 Xposition Yposition Zposition Zrotation Xrotation Yrotation 
	JOINT Hips
	{
		OFFSET -17.1583 93.1646 452.98
		CHANNELS 6 Xposition Yposition Zposition Zrotation Xrotation Yrotation 
		JOINT Spine
		{
			OFFSET 15.7357 0.0 0.0
			CHANNELS 6 Xposition Yposition Zposition Zrotation Xrotation Yrotation 
			JOINT Chest
			{
				OFFSET 8.98455 -0.406207 0.0
				CHANNELS 6 Xposition Yposition Zposition Zrotation Xrotation Yrotation 
				JOINT Neck
				{
					OFFSET 16.3773 0.0 0.0
					CHANNELS 6 Xposition Yposition Zposition Zrotation Xrotation Yrotation 
					JOINT Head
					{
						OFFSET 6.45672 0.0 0.0
						CHANNELS 6 Xposition Yposition Zposition Zrotation Xrotation Yrotation 
						End Site
						{
							OFFSET 0.0 0.0 0.0
						}
					}
				}
				JOINT Shoulder_L
				{
					OFFSET 12.9942 -0.242716 4.98039
					CHANNELS 6 Xposition Yposition Zposition Zrotation Xrotation Yrotation 
					JOINT UpperArm_L
					{
						OFFSET 5.34809 0.0 0.0
						CHANNELS 6 Xposition Yposition Zposition Zrotation Xrotation Yrotation 
						JOINT LowerArm_L
						{
							OFFSET 24.3286 1.87007e-05 0.0
							CHANNELS 6 Xposition Yposition Zposition Zrotation Xrotation Yrotation 
							JOINT Hand_L
							{
								OFFSET 22.2916 0.0 0.0
								CHANNELS 6 Xposition Yposition Zposition Zrotation Xrotation Yrotation 
								End Site
								{
									OFFSET 0.0 0.0 0.0
								}
							}
						}
					}
				}
				JOINT Shoulder_R
				{
					OFFSET 12.9945 -0.242716 -4.98039
					CHANNELS 6 Xposition Yposition Zposition Zrotation Xrotation Yrotation 
					JOINT UpperArm_R
					{
						OFFSET -5.34813 0.0 0.0
						CHANNELS 6 Xposition Yposition Zposition Zrotation Xrotation Yrotation 
						JOINT LowerArm_R
						{
							OFFSET -24.3289 0.000322201 0.0
							CHANNELS 6 Xposition Yposition Zposition Zrotation Xrotation Yrotation 
							JOINT Hand_R
							{
								OFFSET -22.2915 -0.000108084 0.0
								CHANNELS 6 Xposition Yposition Zposition Zrotation Xrotation Yrotation 
								End Site
								{
									OFFSET 0.0 0.0 0.0
								}
							}
						}
					}
				}
			}
		}
		JOINT UpperLeg_L
		{
			OFFSET -2.19248 -6.46944 0.0
			CHANNELS 6 Xposition Yposition Zposition Zrotation Xrotation Yrotation 
			JOINT LowerLeg_L
			{
				OFFSET 39.0811 0.0 -1.23785e-05
				CHANNELS 6 Xposition Yposition Zposition Zrotation Xrotation Yrotation 
				JOINT Foot_L
				{
					OFFSET 40.9854 0.0 -1.26872e-05
					CHANNELS 6 Xposition Yposition Zposition Zrotation Xrotation Yrotation 
					JOINT Toes_L
					{
						OFFSET 11.7543 0.0 0.0
						CHANNELS 6 Xposition Yposition Zposition Zrotation Xrotation Yrotation 
						End Site
						{
							OFFSET 0.0 0.0 0.0
						}
					}
				}
			}
		}
		JOINT UpperLeg_R
		{
			OFFSET -2.19251 6.46944 0.0
			CHANNELS 6 Xposition Yposition Zposition Zrotation Xrotation Yrotation 
			JOINT LowerLeg_R
			{
				OFFSET -39.0811 -0.00228153 -0.0401928
				CHANNELS 6 Xposition Yposition Zposition Zrotation Xrotation Yrotation 
				JOINT Foot_R
				{
					OFFSET -40.9854 0.0 0.0
					CHANNELS 6 Xposition Yposition Zposition Zrotation Xrotation Yrotation 
					JOINT Toes_R
					{
						OFFSET -11.7543 0.0 0.0
						CHANNELS 6 Xposition Yposition Zposition Zrotation Xrotation Yrotation 
						End Site
						{
							OFFSET 0.0 0.0 0.0
						}
					}
				}
			}
		}
	}
}
MOTION
Frames:	4
Frame Time:	0.0333333
0.000000 0.000000 0.000000 0.000000 0.000000 -0.000000 -5.812480 91.427600 -1.384330 81.665200 -3.429550 3.595200 15.735700 0.000005 -0.000001 71.746600 86.956700 -68.132400 8.984550 -0.406207 -0.000000 -1.906250 -2.210690 7.191060 16.377300 -0.000001 -0.000001 14.839100 3.632220 7.782870 6.456720 -0.000001 -0.000000 3.315670 5.773000 8.857770 12.994200 -0.242716 4.980390 -91.934400 5.321620 -69.990800 5.348090 -0.000007 -0.000001 -73.955300 -19.738100 1.704830 24.328600 0.000019 0.000005 38.163900 -40.144200 -129.364000 22.291600 -0.000001 0.000005 50.562000 5.024420 6.795430 12.994500 -0.242716 -4.980390 87.779400 6.131290 -70.046700 -5.348130 -0.000001 -0.000004 -68.533200 -7.295990 -3.332360 -24.328900 0.000322 -0.000009 15.082200 -17.007600 -137.344000 -22.291500 -0.000108 -0.000004 60.370800 5.656630 -15.685000 -2.192480 -6.469440 -0.000000 -167.825000 2.535500 -5.727230 39.081100 -0.000007 -0.000012 0.494707 -0.798379 31.785400 40.985400 -0.000006 -0.000013 -1.651240 5.719510 -78.097100 11.754300 -0.000000 0.000003 0.000919 0.150373 -10.478400 -2.192510 6.469440 -0.000001 -166.320000 8.040620 -177.291000 -39.081100 -0.002282 -0.040193 0.139013 -0.474546 15.956800 -40.985400 0.000008 0.000006 7.188640 2.016770 -70.937400 -11.754300 -0.000006 -0.000006 -0.009803 0.269827 -5.611420
0.000000 0.000000 0.000000 0.000000 0.000000 -0.000000 -5.774520 91.430300 -1.329430 81.663600 -3.407260 3.512000 15.735700 0.000005 -0.000001 71.753600 86.955000 -68.161300 8.984550 -0.406207 -0.000000 -1.903400 -2.209110 7.147320 16.377300 -0.000001 -0.000001 14.825600 3.632130 7.672210 6.456720 -0.000001 -0.000000 3.234560 5.745840 8.854320 12.994200 -0.242716 4.980390 -91.925100 5.301500 -70.009500 5.348090 -0.000007 -0.000001 -73.985600 -19.663900 1.719050 24.328600 0.000019 0.000005 38.095900 -39.996000 -129.346000 22.291600 -0.000001 0.000005 50.677200 5.031600 6.639930 12.994500 -0.242716 -4.980390 87.783500 6.117150 -70.038400 -5.348130 -0.000001 -0.000004 -68.562500 -7.423280 -3.342160 -24.328900 0.000322 -0.000009 15.061000 -16.987100 -137.353000 -22.291500 -0.000108 -0.000004 60.341500 5.655880 -15.605900 -2.192480 -6.469440 -0.000000 -167.854000 2.541350 -5.765280 39.081100 -0.000007 -0.000012 0.499642 -0.806801 31.770900 40.985400 -0.000006 -0.000013 -1.622510 5.712220 -78.189600 11.754300 -0.000000 0.000003 0.000763 0.153606 -10.347200 -2.192510 6.469440 -0.000001 -166.375000 8.190270 -177.325000 -39.081100 -0.002282 -0.040193 0.138495 -0.473352 15.937000 -40.985400 0.000008 0.000006 7.174400 2.177470 -71.021000 -11.754300 -0.000006 -0.000006 -0.010057 0.271732 -5.533530
0.000000 0.000000 0.000000 0.000000 0.000000 -0.000000 -5.742490 91.428500 -1.267360 81.644700 -3.351090 3.435380 15.735700 0.000005 -0.000001 71.674000 86.955000 -68.097800 8.984550 -0.406207 -0.000000 -1.906170 -2.215900 7.115080 16.377300 -0.000001 -0.000001 14.796700 3.617900 7.641450 6.456720 -0.000001 -0.000000 3.190340 5.728510 8.814970 12.994200 -0.242716 4.980390 -91.929400 5.307300 -69.989100 5.348090 -0.000007 -0.000001 -74.053100 -19.671100 1.552780 24.328600 0.000019 0.000005 38.358900 -40.051400 -129.113000 22.291600 -0.000001 0.000005 50.683400 5.019740 6.896370 12.994500 -0.242716 -4.980390 87.772000 6.147760 -70.034500 -5.348130 -0.000001 -0.000004 -68.504200 -7.577410 -3.319990 -24.328900 0.000322 -0.000009 15.132100 -17.034800 -137.289000 -22.291500 -0.000108 -0.000004 60.518600 5.656680 -15.690600 -2.192480 -6.469440 -0.000000 -167.851000 2.582900 -5.812240 39.081100 -0.000007 -0.000012 0.497149 -0.803229 31.756300 40.985400 -0.000006 -0.000013 -1.581330 5.753440 -78.137600 11.754300 -0.000000 0.000003 0.000966 0.149377 -10.518800 -2.192510 6.469440 -0.000001 -166.349000 8.109920 -177.336000 -39.081100 -0.002282 -0.040193 0.139191 -0.477710 15.876200 -40.985400 0.000008 0.000006 7.140780 2.090080 -71.005700 -11.754300 -0.000006 -0.000006 -0.009764 0.269531 -5.623530
0.000000 0.000000 0.000000 0.000000 0.000000 -0.000000 -5.702270 91.435700 -1.201040 81.647300 -3.322530 3.337120 15.735700 0.000005 -0.000001 71.762400 86.968900 -68.203500 8.984550 -0.406207 -0.000000 -1.930670 -2.197570 7.080350 16.377300 -0.000001 -0.000001 14.703500 3.636380 7.607050 6.456720 -0.000001 -0.000000 3.229660 5.766240 8.828850 12.994200 -0.242716 4.980390 -91.925700 5.303160 -70.009700 5.348090 -0.000007 -0.000001 -74.135300 -19.736600 1.467660 24.328600 0.000019 0.000005 38.167600 -39.853200 -129.190000 22.291600 -0.000001 0.000005 50.627900 5.029150 6.692970 12.994500 -0.242716 -4.980390 87.772700 6.157030 -70.067700 -5.348130 -0.000001 -0.000004 -68.470200 -7.632760 -3.268330 -24.328900 0.000322 -0.000009 15.120100 -17.001900 -137.259000 -22.291500 -0.000108 -0.000004 60.812200 5.657770 -15.808800 -2.192480 -6.469440 -0.000000 -167.880000 2.516050 -5.839930 39.081100 -0.000007 -0.000012 0.498047 -0.806125 31.710400 40.985400 -0.000006 -0.000013 -1.538040 5.770540 -78.219400 11.754300 -0.000000 0.000003 0.000819 0.152463 -10.393600 -2.192510 6.469440 -0.000001 -166.400000 8.172430 -177.357000 -39.081100 -0.002282 -0.040193 0.136548 -0.470611 15.805700 -40.985400 0.000008 0.000006 7.100460 2.150170 -71.018600 -11.754300 -0.000006 -0.000006 -0.009728 0.269261 -5.634580
